<?xml version="1.0" standalone="no"?>
<!DOCTYPE svg PUBLIC "-//W3C//DTD SVG 20010904//EN"
 "http://www.w3.org/TR/2001/REC-SVG-20010904/DTD/svg10.dtd">
<svg version="1.0" xmlns="http://www.w3.org/2000/svg"
 width="102.000000pt" height="48.000000pt" viewBox="0 0 102.000000 48.000000"
 preserveAspectRatio="xMidYMid meet">

<g transform="translate(0.000000,48.000000) scale(0.100000,-0.100000)"
fill="#000000" stroke="none">
<path d="M54 470 c-47 -19 -54 -45 -54 -192 0 -131 1 -138 20 -138 19 0 20 7
20 138 0 94 4 142 12 150 8 8 66 12 195 12 170 0 183 -1 193 -19 6 -11 10 -91
10 -189 0 -151 -2 -171 -18 -185 -15 -14 -42 -17 -155 -17 -115 0 -137 -2
-137 -15 0 -13 23 -15 145 -15 142 0 147 1 170 25 25 24 25 26 25 212 -1 197
-3 208 -47 231 -26 14 -346 16 -379 2z"/>
<path d="M143 322 c-22 -3 -23 -7 -23 -103 l0 -99 69 0 c72 0 93 11 92 47 -3
85 -9 125 -22 139 -15 14 -71 22 -116 16z m92 -57 c0 -16 -8 -21 -42 -23 -37
-3 -43 0 -43 16 0 27 10 33 50 30 27 -2 35 -7 35 -23z m10 -90 c0 -17 -7 -20
-45 -20 -39 0 -45 3 -48 23 -3 22 -1 23 45 20 40 -3 48 -6 48 -23z"/>
<path d="M540 216 l0 -73 32 -7 c66 -13 107 55 53 90 -14 9 -32 13 -45 9 -17
-5 -20 -2 -20 24 0 17 -4 31 -10 31 -6 0 -10 -31 -10 -74z m84 -18 c8 -14 7
-21 -6 -34 -30 -30 -75 9 -48 42 16 18 39 15 54 -8z"/>
<path d="M691 223 c-49 -34 -6 -100 57 -87 30 6 32 9 32 53 0 47 0 47 -34 48
-19 1 -44 -6 -55 -14z m63 -25 c8 -14 7 -21 -6 -34 -30 -30 -75 9 -48 42 16
18 39 15 54 -8z"/>
<path d="M812 228 c-21 -21 -13 -36 23 -48 43 -14 36 -34 -8 -25 -31 7 -31 6
-15 -11 14 -14 23 -16 45 -8 40 14 37 44 -6 59 -22 7 -31 14 -23 19 7 4 21 4
32 1 24 -7 27 10 4 19 -24 9 -39 7 -52 -6z"/>
<path d="M919 219 c-11 -11 -18 -27 -15 -36 3 -8 6 -19 6 -23 0 -5 9 -14 21
-20 22 -12 79 3 79 21 0 12 -7 11 -30 -1 -20 -11 -53 -3 -45 10 3 4 21 11 40
14 39 8 46 29 16 46 -29 15 -49 12 -72 -11z m61 -8 c0 -9 -41 -23 -48 -16 -2
2 -1 8 3 14 8 13 45 15 45 2z"/>
<path d="M0 34 c0 -35 1 -35 38 -32 34 3 37 6 40 36 3 31 2 32 -37 32 -40 0
-41 -1 -41 -36z"/>
</g>
</svg>
